<?xml version="1.0" encoding="utf-8"?>
<!-- Generator: Adobe Illustrator 23.0.0, SVG Export Plug-In . SVG Version: 6.00 Build 0)  -->
<svg version="1.1" id="Calque_1" xmlns="http://www.w3.org/2000/svg" xmlns:xlink="http://www.w3.org/1999/xlink" x="0px" y="0px"
	 viewBox="0 0 70 104" style="enable-background:new 0 0 70 104;" xml:space="preserve">
<style type="text/css">
	.st0{clip-path:url(#SVGID_2_);}
	.st1{clip-path:url(#SVGID_4_);}
	.st2{clip-path:url(#SVGID_6_);}
	.st3{clip-path:url(#SVGID_8_);}
	.st4{fill:#6BC2B6;}
</style>
<g>
	<g>
		<defs>
			<rect id="SVGID_1_" x="107.5" y="63.3" width="69.7" height="104.3"/>
		</defs>
		<clipPath id="SVGID_2_">
			<use xlink:href="#SVGID_1_"  style="overflow:visible;"/>
		</clipPath>
		<g class="st0">
			<g>
				<defs>
					<rect id="SVGID_3_" x="107.5" y="63.3" width="69.7" height="104.3"/>
				</defs>
				<clipPath id="SVGID_4_">
					<use xlink:href="#SVGID_3_"  style="overflow:visible;"/>
				</clipPath>
				<path class="st1" d="M142.4,63.3c-19.3,0-34.9,15.6-34.9,34.9c0,7.9,2.6,15.3,7.5,21.5c1,1.2,2,2.4,3,3.6l0.1,0.1
					c3.3,3.8,6.7,7.7,7.9,12.4c0.3,1.1,0.3,3.1,0.3,4.7v2.7c0,2.4,2,4.4,4.4,4.4h23.1c2.4,0,4.4-2,4.4-4.4v-2.7c0-2,0.1-3.5,0.3-4.3
					c1.3-4.6,5-9,8.4-12.9l0.1-0.2c1-1.1,1.9-2.2,2.7-3.3c4.9-6.2,7.5-13.6,7.5-21.5C177.2,78.9,161.6,63.3,142.4,63.3 M162.8,114.2
					c-0.7,0.9-1.6,1.9-2.5,3l-0.2,0.2c-3.9,4.6-8.3,9.8-10.1,16.3c-0.2,0.9-0.5,2.3-0.6,4.9h-14.3c-0.1-2.8-0.3-4.3-0.6-5.2
					c-1.8-6.6-6.2-11.7-9.8-15.8l-0.1-0.1c-1-1.2-1.9-2.3-2.8-3.3c-3.6-4.6-5.6-10.2-5.6-16c0-14.4,11.7-26,26-26
					c14.4,0,26,11.7,26,26C168.4,104,166.5,109.6,162.8,114.2"/>
			</g>
			<g>
				<defs>
					<rect id="SVGID_5_" x="107.5" y="63.3" width="69.7" height="104.3"/>
				</defs>
				<clipPath id="SVGID_6_">
					<use xlink:href="#SVGID_5_"  style="overflow:visible;"/>
				</clipPath>
				<path class="st2" d="M153.8,148.7h-23.1c-2.4,0-4.4,2-4.4,4.4c0,2.4,2,4.4,4.4,4.4h23.1c2.4,0,4.4-2,4.4-4.4
					C158.2,150.7,156.3,148.7,153.8,148.7"/>
			</g>
			<g>
				<defs>
					<rect id="SVGID_7_" x="107.5" y="63.3" width="69.7" height="104.3"/>
				</defs>
				<clipPath id="SVGID_8_">
					<use xlink:href="#SVGID_7_"  style="overflow:visible;"/>
				</clipPath>
				<path class="st3" d="M148,158.8h-11.5c-2.4,0-4.4,2-4.4,4.4c0,2.4,2,4.4,4.4,4.4h11.6c2.4,0,4.4-2,4.4-4.4
					C152.4,160.8,150.5,158.8,148,158.8"/>
			</g>
		</g>
	</g>
</g>
<path class="st4" d="M61.8,45.2c0-14.8-12-26.8-26.8-26.8S8.2,30.5,8.2,45.2c0,7.2,2.9,13.8,7.5,18.6c1.2,1.2,2.4,2.3,3.8,3.3l0,0
	c0,0,7.7,7.4,8.2,18.4H42c0,0-1.2-7.4,8.4-18.4l0,0C57.3,62.2,61.8,54.3,61.8,45.2z"/>
<g id="jnERwx.tif">
	
		<image style="overflow:visible;" width="396" height="180" id="Layer_0" xlink:href="CE809ACA6D95D6A7.png"  transform="matrix(0.5 0 0 0.5 -266.4901 85.5292)">
	</image>
</g>
</svg>
