<svg id="Layer_1" enable-background="new 0 0 256 256" height="512" viewBox="0 0 256 256" width="512" xmlns="http://www.w3.org/2000/svg"><path d="m187.834 136.571c.361-.361.697-.736 1.012-1.123.102-.125.187-.259.284-.387.203-.267.408-.533.59-.81.106-.161.193-.329.292-.494.152-.254.31-.506.445-.766.095-.182.171-.37.258-.555.117-.252.24-.501.342-.757.078-.196.139-.397.208-.596.088-.253.181-.503.255-.759.059-.206.102-.415.152-.623.061-.254.127-.507.174-.763.039-.213.063-.428.093-.642.035-.255.074-.508.096-.764.018-.217.022-.434.031-.652.011-.255.024-.508.021-.763-.003-.219-.019-.438-.031-.657-.014-.253-.027-.505-.054-.757-.024-.22-.061-.437-.095-.656-.039-.249-.076-.498-.128-.746-.045-.218-.103-.434-.159-.65-.063-.244-.125-.487-.201-.728-.067-.215-.146-.426-.223-.638-.087-.237-.174-.474-.273-.707-.089-.209-.188-.414-.288-.62-.11-.229-.223-.457-.346-.681-.111-.202-.231-.399-.352-.596-.134-.219-.272-.436-.419-.649-.133-.192-.274-.38-.417-.567-.158-.207-.32-.411-.491-.611-.155-.182-.317-.359-.483-.534-.101-.107-.19-.222-.295-.327-.087-.087-.181-.16-.269-.243-.083-.079-.155-.165-.24-.242-.098-.089-.205-.164-.305-.25-.189-.163-.381-.321-.576-.472-.172-.133-.347-.261-.524-.385-.246-.174-.496-.339-.75-.496-.108-.066-.217-.13-.326-.193-5.568-3.237-12.818-2.487-17.587 2.282l17.468-17.468c5.682-5.682 5.682-14.896 0-20.578-5.682-5.682-14.896-5.682-20.578 0l7.833-7.833c5.682-5.682 5.682-14.896 0-20.578s-14.896-5.682-20.578 0l-14.921 14.921c4.77-4.77 5.519-12.019 2.283-17.588-.063-.11-.127-.219-.193-.327-.157-.254-.322-.503-.495-.748-.124-.178-.253-.353-.387-.526-.151-.195-.309-.385-.471-.574-.086-.1-.161-.207-.251-.306-.078-.085-.164-.157-.243-.24-.084-.088-.157-.182-.243-.269-.105-.105-.219-.194-.326-.295-.176-.166-.353-.328-.534-.483-.2-.171-.404-.332-.61-.49-.188-.143-.376-.285-.568-.418-.213-.147-.429-.284-.648-.418-.198-.122-.396-.242-.598-.353-.223-.123-.45-.235-.678-.345-.207-.1-.412-.199-.622-.289-.232-.099-.468-.186-.704-.272-.213-.078-.425-.157-.641-.224-.24-.075-.483-.138-.726-.2-.217-.056-.433-.114-.652-.159-.247-.051-.495-.089-.743-.127-.22-.034-.438-.071-.659-.095-.251-.027-.502-.04-.754-.054-.22-.012-.439-.029-.66-.032-.253-.003-.506.01-.759.02-.219.009-.438.013-.657.031-.254.022-.506.061-.759.096-.216.03-.432.054-.647.093-.254.047-.504.112-.756.172-.21.05-.421.094-.63.154-.253.073-.501.165-.75.252-.202.07-.406.132-.605.212-.252.101-.498.222-.746.337-.189.088-.381.167-.567.263-.257.134-.505.289-.756.439-.168.101-.34.19-.504.298-.274.179-.535.382-.799.582-.132.1-.269.188-.398.293-.387.314-.761.65-1.121 1.01 0 0-.001.001-.001.001l-24.751 24.753-23.237 23.237.817-12.607c.828-12.789-8.86-23.829-21.645-24.671-4.985-.328-9.329 3.467-9.652 8.453l-1.88 29.019c-1.055 16.285-3.708 32.394-6.968 48.385-2.563 12.572 1.031 26.149 10.783 35.902l26.376 26.376c15.446 15.446 40.489 15.446 55.935 0l8.864-8.864z" fill="#f9cfcf"/><g fill="#3762cc"><path d="m113.553 130.541c-.512 0-1.023-.195-1.414-.586-.781-.781-.781-2.047 0-2.829l58.428-58.428c2.37-2.37 3.676-5.522 3.676-8.875s-1.306-6.504-3.676-8.875c-4.895-4.894-12.855-4.894-17.75 0l-58.428 58.428c-.781.781-2.047.781-2.828 0s-.781-2.047 0-2.829l58.428-58.428c6.453-6.453 16.953-6.453 23.406 0 3.126 3.126 4.848 7.282 4.848 11.703s-1.722 8.577-4.848 11.703l-58.428 58.428c-.391.393-.903.588-1.414.588z"/><path d="m134.131 151.119c-.512 0-1.023-.195-1.414-.586-.781-.781-.781-2.047 0-2.829l50.595-50.595c4.893-4.894 4.893-12.856 0-17.75-4.893-4.893-12.855-4.894-17.75 0l-50.595 50.595c-.781.781-2.047.781-2.828 0s-.781-2.047 0-2.829l50.595-50.595c6.453-6.453 16.953-6.453 23.406 0 6.452 6.453 6.452 16.953 0 23.406l-50.595 50.595c-.391.393-.902.588-1.414.588z"/><path d="m93.712 216.291c-10.641 0-21.281-4.05-29.382-12.151l-26.376-26.376c-9.892-9.891-14.126-23.99-11.329-37.715 3.815-18.716 6.019-34.005 6.932-48.115l1.88-29.019c.19-2.94 1.521-5.634 3.746-7.586 2.229-1.956 5.068-2.928 8.033-2.733 13.86.913 24.407 12.934 23.51 26.796l-.475 7.311 44.239-44.238c.402-.402.831-.789 1.275-1.15.113-.092.226-.173.339-.253l.21-.156c.267-.203.535-.404.812-.586.139-.091.277-.171.417-.25l.313-.185c.232-.14.465-.279.704-.404.16-.083.318-.155.478-.226l.318-.146c.231-.109.463-.217.699-.311.171-.068.345-.127.52-.186l.313-.108c.235-.083.471-.165.71-.234.183-.052.366-.096.551-.138l.309-.073c.238-.058.478-.115.718-.16.19-.035.383-.061.574-.086l.29-.04c.244-.035.489-.068.735-.089.195-.017.394-.025.592-.031l.154-.006c.351-.015.606-.026.862-.022.202.002.405.014.607.026l.142.008c.342.019.601.034.858.062.202.022.404.053.606.085l.138.022c.321.05.587.092.851.147.219.046.438.102.656.158.368.095.641.166.911.25.227.071.452.153.678.235.318.117.586.216.851.329.235.1.467.211.697.323.271.131.527.258.781.397.233.128.457.264.683.402.25.153.495.31.738.477.22.152.435.313.647.476.234.18.465.363.692.556.207.177.408.362.608.55l.081.071c.097.084.192.169.285.261.088.089.163.173.237.258l.081.086c.078.074.155.15.23.231.089.098.166.194.242.291.232.274.412.491.584.713.155.201.302.4.443.602.196.28.385.562.563.85.081.132.156.259.229.387 1.722 2.962 2.431 6.293 2.185 9.543l7.301-7.301c6.453-6.453 16.953-6.453 23.406 0 3.126 3.126 4.848 7.282 4.848 11.703s-1.722 8.577-4.848 11.703l-.212.212c4.637-.349 9.411 1.247 12.957 4.792 6.452 6.453 6.452 16.953 0 23.406l-9.851 9.851c3.253-.245 6.59.465 9.561 2.192.117.067.24.14.363.215.298.184.583.372.863.571.194.136.396.284.593.436.224.174.44.353.655.537.162.128.254.203.344.284.087.079.162.156.236.234l.094.089c.087.076.174.153.256.237.085.084.172.182.258.28l.071.081c.19.203.374.403.55.608.194.228.378.459.558.694.163.213.323.427.475.647.167.24.323.488.477.737.139.227.274.45.4.678.142.258.271.517.396.777.111.23.223.462.324.7.115.273.216.54.313.809.104.282.183.502.253.726.077.244.143.494.208.744 0 0 .045.175.045.176.057.218.112.435.157.655.058.276.103.561.146.847l.017.104c.033.213.066.426.089.641.029.269.045.542.06.815l.011.177c.013.203.024.405.027.608.003.257-.007.509-.019.762l-.011.268c-.006.191-.014.383-.029.573-.022.255-.055.495-.089.736l-.039.287c-.025.195-.052.389-.088.583-.045.249-.104.496-.165.743l-.07.294c-.041.179-.083.358-.133.535-.074.256-.159.499-.246.742l-.095.276c-.06.177-.119.355-.189.53-.097.243-.207.479-.317.716l-.147.318c-.068.155-.139.309-.218.461-.131.252-.277.497-.426.741l-.163.278c-.08.14-.161.279-.25.415-.195.296-.409.579-.624.862l-.123.168c-.079.112-.16.223-.247.331-.364.449-.752.878-1.152 1.278l-66.154 66.154c-8.101 8.103-18.741 12.154-29.382 12.154zm-47.232-159.72c-1.713 0-3.353.617-4.659 1.764-1.422 1.247-2.271 2.965-2.393 4.838l-1.88 29.019c-.926 14.296-3.151 29.756-7.004 48.655-2.528 12.406 1.299 25.149 10.237 34.088l26.376 26.376c14.642 14.641 38.464 14.642 53.107 0l66.154-66.155s.001-.001.001-.001c.303-.302.597-.628.873-.969l.242-.333c.212-.278.372-.486.516-.703.041-.063.078-.132.117-.2l.217-.367c.103-.171.208-.341.299-.517.042-.079.077-.162.113-.243l.182-.393c.077-.164.155-.328.222-.495.04-.101.074-.206.109-.31l.12-.351c.061-.169.121-.337.171-.508.029-.102.054-.213.079-.325l.084-.353c.042-.17.084-.339.115-.511.023-.127.039-.254.057-.382l.044-.326c.024-.171.049-.342.064-.513.009-.116.013-.245.018-.375l.012-.306c.008-.179.017-.357.015-.536-.002-.135-.011-.272-.02-.41l-.01-.155c-.014-.255-.023-.456-.045-.656-.016-.15-.04-.295-.063-.44l-.019-.122c-.034-.221-.065-.434-.11-.645-.033-.161-.073-.313-.112-.466l1.892-.674-1.937.502c-.047-.183-.094-.366-.151-.547-.053-.169-.113-.332-.173-.496-.097-.264-.172-.47-.258-.673-.074-.171-.16-.349-.246-.527-.097-.2-.192-.396-.299-.589-.095-.173-.199-.343-.305-.514-.114-.186-.231-.373-.358-.556-.115-.168-.236-.329-.359-.49-.138-.179-.276-.356-.424-.528-.135-.158-.275-.311-.419-.464-.059-.062-.118-.13-.178-.198l-.073-.082c-.113-.1-.177-.156-.238-.214-.059-.055-.117-.116-.176-.178l-.094-.083c-.065-.052-.131-.104-.195-.159-.166-.143-.332-.28-.501-.411-.145-.112-.293-.221-.444-.327-.22-.155-.435-.298-.653-.433l-.273-.162c-4.923-2.861-11.158-2.053-15.175 1.963-.781.781-2.047.781-2.828 0-.391-.391-.586-.902-.586-1.414s.195-1.024.586-1.414l17.468-17.468c4.893-4.894 4.893-12.856 0-17.75-4.893-4.893-12.855-4.894-17.75 0-.781.781-2.047.781-2.828 0s-.781-2.047 0-2.828l7.833-7.833c2.37-2.371 3.676-5.522 3.676-8.875 0-3.352-1.306-6.504-3.676-8.875-4.895-4.894-12.855-4.894-17.75 0l-14.92 14.92c-.781.781-2.047.781-2.828 0s-.781-2.047 0-2.829c4.015-4.015 4.824-10.253 1.967-15.169l-.17-.289c-.132-.213-.275-.428-.425-.641-.108-.153-.218-.304-.333-.453-.128-.164-.263-.327-.403-.49-.062-.073-.114-.138-.166-.204l-.079-.09c-.062-.058-.121-.116-.181-.178l-.292-.308c-.067-.059-.136-.118-.201-.181-.153-.145-.306-.285-.463-.418-.172-.147-.35-.287-.528-.424-.161-.123-.323-.245-.489-.36-.182-.126-.368-.243-.556-.358-.171-.105-.342-.21-.517-.306-.189-.104-.386-.2-.584-.296-.186-.09-.358-.174-.535-.25-.2-.085-.403-.16-.607-.234-.219-.08-.384-.141-.552-.194-.204-.064-.409-.116-.614-.168-.001 0-.102-.026-.104-.027-.156-.041-.313-.082-.471-.115-.196-.041-.393-.07-.589-.101l-.203-.031c-.139-.022-.277-.044-.417-.06-.188-.021-.376-.03-.563-.04l-.247-.014c-.137-.008-.272-.017-.41-.019-.185 0-.367.007-.55.015l-.284.011c-.129.004-.259.008-.387.019-.175.015-.345.04-.516.064l-.334.046c-.122.016-.243.031-.364.053-.168.031-.332.072-.497.112l-.362.086c-.112.026-.225.051-.336.083-.164.048-.325.106-.487.163l-.38.131c-.101.033-.202.066-.301.105-.161.064-.318.14-.476.214l-.396.182c-.088.039-.176.077-.263.122-.161.084-.32.182-.481.279l-.397.235c-.069.039-.139.078-.206.122-.198.13-.391.278-.584.425l-.313.231c-.046.033-.093.064-.138.1-.333.271-.658.564-.964.87l-47.995 47.995c-.587.588-1.477.752-2.239.408-.758-.343-1.225-1.121-1.171-1.951l.817-12.607c.756-11.664-8.118-21.778-19.781-22.546-.157-.012-.314-.017-.472-.017z"/><path d="m65.461 108.729c-.107 0-.218-.009-.328-.027-1.09-.18-1.827-1.209-1.647-2.299l2.453-14.859c.181-1.089 1.198-1.828 2.3-1.648 1.09.18 1.827 1.209 1.647 2.299l-2.453 14.859c-.162.98-1.01 1.675-1.972 1.675z"/><path d="m65.744 178.349c-.512 0-1.023-.195-1.414-.586-.781-.781-.781-2.048 0-2.829l18.648-18.648c9.92-9.92 9.92-26.061 0-35.981-.781-.781-.781-2.047 0-2.829.781-.781 2.047-.781 2.828 0 11.479 11.479 11.479 30.158 0 41.638l-18.648 18.648c-.39.392-.902.587-1.414.587z"/></g><path d="m188.467 57.011c-.768 0-1.535-.293-2.121-.879-1.172-1.172-1.172-3.071 0-4.243l22.419-22.42c1.172-1.172 3.07-1.172 4.242 0s1.172 3.071 0 4.243l-22.419 22.42c-.586.587-1.353.879-2.121.879z" fill="#f9a7a7"/><path d="m232.984 69.823h-31.706c-1.657 0-3-1.343-3-3s1.343-3 3-3h31.706c1.657 0 3 1.343 3 3s-1.343 3-3 3z" fill="#f9a7a7"/><path d="m175.656 44.2c-1.657 0-3-1.343-3-3v-31.706c0-1.657 1.343-3 3-3s3 1.343 3 3v31.706c0 1.657-1.343 3-3 3z" fill="#f9a7a7"/><path d="m153.876 40.357c-.768 0-1.535-.293-2.121-.879l-22.419-22.42c-1.172-1.172-1.172-3.071 0-4.243 1.172-1.171 3.07-1.172 4.242 0l22.419 22.42c1.172 1.172 1.172 3.071 0 4.243-.586.586-1.353.879-2.121.879z" fill="#f9a7a7"/><path d="m180.6 116.397c0-.51-.027-1.014-.078-1.51-.016-.161-.051-.316-.072-.475-.045-.332-.088-.666-.156-.99-.039-.188-.096-.37-.143-.556-.072-.287-.138-.577-.227-.857-.062-.196-.141-.383-.21-.575-.095-.261-.185-.524-.293-.778-.083-.194-.182-.379-.274-.568-.116-.241-.228-.484-.357-.717-.104-.188-.221-.365-.333-.548-.136-.223-.269-.448-.416-.662-.123-.178-.258-.347-.389-.52-.155-.205-.307-.412-.472-.608-.14-.167-.291-.323-.439-.483-.173-.188-.343-.376-.525-.554-.157-.153-.323-.296-.487-.443-.189-.169-.376-.338-.573-.497-.172-.138-.352-.266-.53-.397-.204-.149-.406-.298-.618-.437-.187-.122-.38-.234-.572-.348-.217-.128-.433-.256-.657-.373-.199-.104-.404-.198-.609-.293-.229-.107-.458-.212-.693-.307-.211-.085-.426-.16-.642-.235-.24-.084-.48-.165-.726-.237-.221-.064-.445-.118-.671-.172-.25-.06-.5-.116-.755-.163-.23-.042-.462-.075-.696-.106-.258-.034-.517-.064-.779-.085-.238-.019-.478-.029-.719-.036-.147-.004-.291-.022-.44-.022-.122 0-.241.015-.363.018-.114.003-.226-.007-.341-.002-.133.006-.26.029-.392.039-.249.019-.496.042-.741.073-.216.028-.43.061-.643.098-.297.051-.59.11-.881.179-.123.03-.245.061-.367.094-6.226 1.649-10.822 7.305-10.823 14.05v-24.702c0-8.036-6.515-14.551-14.551-14.551-8.036 0-14.551 6.515-14.551 14.551v-11.078c0-8.036-6.515-14.551-14.551-14.551s-14.551 6.515-14.551 14.551v21.101c0-6.745-4.596-12.402-10.823-14.051-.122-.033-.245-.065-.368-.095-.29-.069-.583-.128-.88-.179-.214-.038-.428-.071-.645-.098-.245-.031-.491-.054-.739-.073-.132-.01-.26-.032-.393-.039-.115-.005-.227.004-.341.002-.121-.003-.24-.018-.362-.018-.148 0-.292.018-.439.022-.241.007-.481.017-.719.036-.262.021-.52.051-.778.085-.234.031-.467.064-.697.106-.254.047-.504.103-.754.163-.226.054-.451.109-.672.173-.245.071-.484.153-.724.236-.216.076-.432.15-.644.236-.234.094-.462.199-.69.305-.206.095-.411.19-.612.295-.223.117-.439.244-.655.372-.193.114-.386.226-.573.348-.211.138-.413.287-.615.435-.179.131-.36.26-.533.398-.197.158-.383.327-.571.495-.164.147-.331.29-.489.444-.181.177-.35.365-.522.551-.149.161-.301.319-.442.487-.164.195-.315.401-.469.604-.132.174-.268.344-.392.524-.146.213-.278.436-.413.656-.113.184-.232.364-.336.554-.127.23-.237.47-.352.708-.093.193-.193.38-.278.577-.107.25-.195.509-.289.766-.071.196-.152.387-.215.587-.087.277-.153.562-.224.845-.047.19-.106.375-.146.567-.067.32-.108.649-.153.977-.023.164-.057.323-.075.489-.051.496-.078.998-.078 1.507v.002 35.008 32.863l-8.337-9.492c-8.457-9.629-23.115-10.584-32.75-2.14-3.757 3.293-4.145 9.048-.848 12.802l19.191 21.849c10.77 12.261 20.284 25.528 29.286 39.14 7.078 10.702 19.219 17.762 33.011 17.762h37.302c21.844 0 39.552-17.708 39.552-39.552v-12.536-81.021z" fill="#f9cfcf"/><path d="m64.193 186.494c-1.104 0-2-.896-2-2v-14.909c0-1.104.896-2 2-2s2 .896 2 2v14.909c0 1.105-.895 2-2 2z" fill="#3762cc"/><path d="m122.396 165.244c-1.104 0-2-.896-2-2v-82.63c0-6.921-5.63-12.551-12.551-12.551s-12.551 5.63-12.551 12.551v82.63c0 1.104-.896 2-2 2s-2-.896-2-2v-82.63c0-9.126 7.425-16.551 16.551-16.551s16.551 7.425 16.551 16.551v82.63c0 1.105-.895 2-2 2z" fill="#3762cc"/><path d="m151.499 165.244c-1.104 0-2-.896-2-2v-71.552c0-6.92-5.63-12.551-12.551-12.551s-12.552 5.63-12.552 12.551v71.552c0 1.104-.896 2-2 2s-2-.896-2-2v-71.552c0-9.126 7.425-16.551 16.551-16.551 9.127 0 16.552 7.425 16.552 16.551v71.552c0 1.105-.895 2-2 2z" fill="#3762cc"/><path d="m141.048 251.506h-37.302c-13.989 0-26.953-6.975-34.679-18.658-10.54-15.936-19.794-28.304-29.122-38.924l-19.19-21.849c-1.943-2.213-2.908-5.059-2.715-8.012.193-2.961 1.524-5.665 3.747-7.614 10.448-9.156 26.405-8.112 35.572 2.324l4.834 5.504v-62.562c0-.568.03-1.146.09-1.717.014-.136.036-.278.061-.419l.035-.237c.047-.338.094-.677.163-1.008.033-.16.074-.315.116-.47l.091-.351c.064-.264.131-.527.212-.785.056-.173.116-.336.179-.498l.126-.343c.085-.237.171-.473.271-.703.071-.167.15-.328.23-.488l.156-.32c.105-.22.212-.439.329-.653.09-.162.187-.319.284-.476l.186-.3c.124-.204.249-.407.384-.604.111-.161.229-.317.349-.471l.185-.242c.145-.192.289-.383.444-.567.126-.15.257-.291.389-.432l.193-.209c.169-.184.338-.366.518-.541.14-.137.29-.271.441-.405l.109-.097c.256-.229.448-.4.649-.562.167-.134.338-.259.509-.384l.099-.072c.27-.197.481-.35.701-.494.183-.119.37-.23.557-.341l.092-.054c.273-.162.508-.298.75-.425.206-.108.419-.208.632-.307.323-.15.582-.269.849-.376.229-.092.463-.175.699-.257.306-.106.578-.198.856-.279.254-.073.509-.136.766-.198.285-.068.569-.132.857-.185.265-.048.528-.086.794-.122.295-.039.589-.073.888-.096.268-.021.54-.033.815-.042l.108-.007c.241-.017.488-.019.731-.002l.123.003c.11-.003.22-.004.332.001.124.006.245.019.364.033.367.031.647.057.925.092.252.032.498.07.742.113.331.057.663.125.992.202.153.037.293.073.434.111 3.313.878 6.172 2.733 8.297 5.205v-10.322c0-9.126 7.425-16.551 16.551-16.551s16.551 7.425 16.551 16.551v.3c3.038-3.532 7.538-5.773 12.551-5.773 9.127 0 16.552 7.425 16.552 16.551v13.931c2.127-2.474 4.989-4.331 8.311-5.21.129-.035.269-.071.408-.105.342-.081.675-.148 1.013-.207.234-.041.479-.079.726-.111.285-.036.565-.063.848-.084.205-.024.325-.036.446-.042.114-.006.225-.004.335-.001l.121-.003c.244-.017.491-.015.733.002l.109.007c.274.008.547.02.818.042.294.023.588.057.882.096.27.036.534.074.796.122.287.052.573.116.859.185.257.062.512.124.763.197.278.081.553.173.826.268.274.096.505.177.73.268.27.109.531.228.791.35.258.119.477.221.691.333.245.128.483.268.722.409l.113.067c.189.112.379.224.563.345.218.142.431.296.643.451l.174.127c.163.119.327.24.485.367.214.171.414.35.614.53l.14.124c.153.136.307.272.453.415.182.178.351.36.52.544l.19.207c.131.14.262.281.386.427.168.2.323.406.478.612l.157.206c.117.153.234.306.344.466.142.205.271.415.398.626l.172.278c.098.156.193.312.283.474.123.222.234.453.346.685l.146.3c.079.158.157.317.228.48.097.226.184.462.269.7l.131.355c.062.16.122.321.174.485.084.268.154.546.223.825l.078.305c.044.157.086.315.119.477.072.345.121.699.169 1.053l.031.206c.023.135.045.269.059.407.06.57.09 1.148.09 1.716v93.557c-.003 22.91-18.644 41.55-41.556 41.55zm-102.652-97.298c-4.968 0-9.953 1.728-13.972 5.25-1.419 1.244-2.269 2.972-2.393 4.866-.123 1.887.491 3.702 1.729 5.112l19.19 21.849c9.451 10.759 18.81 23.265 29.452 39.357 6.983 10.56 18.7 16.865 31.343 16.865h37.302c20.707 0 37.553-16.846 37.553-37.552v-93.557c0-.43-.023-.868-.068-1.302l-.065-.414c-.045-.337-.078-.598-.131-.852-.017-.077-.038-.151-.059-.225l-.108-.418c-.047-.192-.092-.385-.151-.572-.029-.091-.063-.176-.095-.261l-.159-.43c-.058-.16-.113-.319-.181-.474-.041-.096-.086-.184-.13-.273l-.176-.361c-.077-.161-.153-.322-.238-.477-.055-.099-.115-.193-.174-.288l-.196-.318c-.091-.148-.18-.296-.277-.439-.068-.099-.145-.197-.22-.295l-.186-.244c-.11-.147-.22-.294-.338-.434-.078-.093-.164-.184-.25-.276l-.213-.23c-.121-.132-.241-.264-.369-.39-.098-.094-.203-.187-.308-.28l-.111-.098c-.194-.174-.341-.307-.496-.431-.108-.087-.224-.17-.339-.255l-.122-.089c-.21-.153-.365-.268-.527-.374-.133-.087-.268-.166-.402-.245l-.094-.056c-.201-.119-.38-.225-.565-.322-.157-.082-.318-.156-.479-.23-.246-.115-.443-.206-.645-.287-.167-.067-.339-.126-.511-.187-.247-.086-.453-.157-.665-.218-.192-.056-.387-.102-.58-.149-.213-.051-.429-.1-.647-.14-.201-.037-.401-.065-.603-.092-.22-.029-.443-.056-.67-.073-.208-.017-.414-.025-.621-.031-.091-.003-.181-.009-.27-.015l-.112-.007c-.145.01-.227.015-.311.018-.091.002-.173.001-.257-.001l-.121.008c-.086.01-.171.02-.258.026-.214.016-.428.036-.641.063-.179.023-.362.051-.545.083-.265.046-.518.097-.769.156l-.306.079c-5.506 1.458-9.344 6.44-9.344 12.119 0 1.104-.896 2-2 2s-2-.896-2-2v-24.705c0-6.92-5.63-12.551-12.551-12.551s-12.552 5.63-12.552 12.551c0 1.104-.896 2-2 2s-2-.896-2-2v-11.078c0-6.921-5.63-12.551-12.551-12.551s-12.551 5.63-12.551 12.551v21.101c0 1.104-.896 2-2 2s-2-.896-2-2c0-5.679-3.839-10.662-9.334-12.117l-.327-.084c-.24-.057-.494-.108-.75-.152-.188-.033-.372-.062-.559-.085-.206-.026-.418-.046-.633-.062-.089-.007-.173-.016-.258-.026l-.122-.008c-.084.002-.17.004-.253.002-.089-.002-.172-.008-.254-.013l-.173.002c-.089.006-.179.012-.269.014-.208.006-.414.015-.619.031-.23.018-.452.044-.675.074-.201.027-.402.055-.602.091-.217.04-.433.089-.648.141-.193.046-.388.093-.579.148-.21.061-.416.132-.623.204s-.382.133-.554.202c-.204.082-.4.173-.598.265-.216.1-.372.173-.525.252-.183.095-.356.199-.532.302l-.128.076c-.135.08-.27.158-.4.244-.161.105-.315.219-.471.333l-.167.121c-.119.087-.238.172-.353.264-.146.117-.286.244-.428.371l-.188.167c-.101.089-.201.177-.298.271-.124.127-.243.257-.362.387l-.214.231c-.086.092-.173.184-.254.28-.106.127-.207.261-.308.396l-.21.276c-.076.099-.153.198-.225.301-.093.135-.178.275-.263.416l-.21.341c-.059.094-.118.187-.172.284-.081.147-.152.299-.226.451l-.185.379c-.047.094-.095.186-.136.283-.066.153-.122.313-.18.473l-.155.419c-.034.091-.07.181-.1.274-.055.172-.099.355-.144.538l-.115.448c-.021.075-.043.15-.059.227-.05.24-.082.487-.115.734l-.056.369c-.009.051-.02.102-.024.155-.046.442-.069.879-.069 1.308v67.872c0 .833-.516 1.578-1.295 1.872-.777.294-1.657.074-2.208-.552l-8.337-9.492c-4.184-4.767-10.056-7.205-15.954-7.205z" fill="#3762cc"/></svg>