<?xml version="1.0" encoding="utf-8"?>
<!-- Generator: Adobe Illustrator 23.0.0, SVG Export Plug-In . SVG Version: 6.00 Build 0)  -->
<svg version="1.1" id="Calque_1" xmlns="http://www.w3.org/2000/svg" xmlns:xlink="http://www.w3.org/1999/xlink" x="0px" y="0px"
	 viewBox="0 0 70 104" style="enable-background:new 0 0 70 104;" xml:space="preserve">
<style type="text/css">
	.st0{fill:#FFFFFF;stroke:#000000;stroke-miterlimit:10;}
	.st1{clip-path:url(#SVGID_2_);}
	.st2{clip-path:url(#SVGID_4_);}
	.st3{clip-path:url(#SVGID_6_);}
	.st4{clip-path:url(#SVGID_8_);}
</style>
<polygon class="st0" points="24.9,78.6 44.4,78.6 51.4,64.9 62.5,45.4 63.7,24.3 49,6.9 29.1,3.9 15.8,10.1 5.9,22.7 4.9,41.2 
	15.4,58.4 "/>
<g>
	<g>
		<defs>
			<rect id="SVGID_1_" y="-0.3" width="69.7" height="104.3"/>
		</defs>
		<clipPath id="SVGID_2_">
			<use xlink:href="#SVGID_1_"  style="overflow:visible;"/>
		</clipPath>
		<g class="st1">
			<g>
				<defs>
					<rect id="SVGID_3_" y="-0.3" width="69.7" height="104.3"/>
				</defs>
				<clipPath id="SVGID_4_">
					<use xlink:href="#SVGID_3_"  style="overflow:visible;"/>
				</clipPath>
				<path class="st2" d="M34.9-0.3C15.6-0.3,0,15.3,0,34.6c0,7.9,2.6,15.3,7.5,21.5c1,1.2,2,2.4,3,3.6l0.1,0.1
					c3.3,3.8,6.7,7.7,7.9,12.4c0.3,1.1,0.3,3.1,0.3,4.7v2.7c0,2.4,2,4.4,4.4,4.4h23.1c2.4,0,4.4-2,4.4-4.4v-2.7c0-2,0.1-3.5,0.3-4.3
					c1.3-4.6,5-9,8.4-12.9l0.1-0.2c1-1.1,1.9-2.2,2.7-3.3c4.9-6.2,7.5-13.6,7.5-21.5C69.7,15.3,54.1-0.3,34.9-0.3 M55.3,50.6
					c-0.7,0.9-1.6,1.9-2.5,3l-0.2,0.2c-3.9,4.6-8.3,9.8-10.1,16.3C42.3,71,42,72.4,41.9,75H27.6c-0.1-2.8-0.3-4.3-0.6-5.2
					c-1.8-6.6-6.2-11.7-9.8-15.8l-0.1-0.1c-1-1.2-1.9-2.3-2.8-3.3c-3.6-4.6-5.6-10.2-5.6-16c0-14.4,11.7-26,26-26
					c14.4,0,26,11.7,26,26C60.9,40.4,59,46,55.3,50.6"/>
			</g>
			<g>
				<defs>
					<rect id="SVGID_5_" y="-0.3" width="69.7" height="104.3"/>
				</defs>
				<clipPath id="SVGID_6_">
					<use xlink:href="#SVGID_5_"  style="overflow:visible;"/>
				</clipPath>
				<path class="st3" d="M46.3,85.1H23.2c-2.4,0-4.4,2-4.4,4.4s2,4.4,4.4,4.4h23.1c2.4,0,4.4-2,4.4-4.4
					C50.7,87.1,48.8,85.1,46.3,85.1"/>
			</g>
			<g>
				<defs>
					<rect id="SVGID_7_" y="-0.3" width="69.7" height="104.3"/>
				</defs>
				<clipPath id="SVGID_8_">
					<use xlink:href="#SVGID_7_"  style="overflow:visible;"/>
				</clipPath>
				<path class="st4" d="M40.5,95.2H29c-2.4,0-4.4,2-4.4,4.4s2,4.4,4.4,4.4h11.6c2.4,0,4.4-2,4.4-4.4C44.9,97.2,43,95.2,40.5,95.2"
					/>
			</g>
		</g>
	</g>
</g>
</svg>
